<svg xmlns="http://www.w3.org/2000/svg" width="30" height="31" viewBox="0 0 30 31">
    <g fill="none" fill-rule="evenodd">
        <g fill="#EAB143" fill-rule="nonzero">
            <g>
                <g>
                    <path d="M15 3.75c1.328 0 2.655.726 3.245 1.887l8.702 14.952c.737 1.161.737 2.613 0 3.774-.59 1.161-1.77 1.887-3.245 1.887H6.298c-1.328 0-2.655-.726-3.245-1.887-.737-1.161-.737-2.613 0-3.774l8.702-14.952C12.493 4.476 13.673 3.75 15 3.75zm0 1.597c-.885 0-1.622.435-1.917 1.161L4.38 21.46c-.443.726-.443 1.596 0 2.322.442.726 1.18 1.162 1.917 1.162H23.85c.884 0 1.622-.436 1.917-1.162.442-.726.442-1.597 0-2.322L17.065 6.508c-.443-.726-1.18-1.161-2.065-1.161zm-.59 15.097c.295-.29.737-.29 1.032 0 .148.145.148.29.148.58 0 .145-.148.436-.295.58.147.146-.148.146-.295.146h-.085c-.157-.004-.382-.024-.505-.145-.147-.145-.147-.29-.147-.58 0-.146 0-.436.147-.581zm.59-9.146c.442 0 .737.29.737.726v5.226c0 .436-.295.726-.737.726-.443 0-.737-.29-.737-.726v-5.226c0-.435.295-.726.737-.726z" transform="translate(-119 -180) translate(104 164) translate(15 17)"/>
                </g>
            </g>
        </g>
    </g>
</svg>
